<svg width="478" height="80" viewBox="0 0 478 80" fill="none" xmlns="http://www.w3.org/2000/svg">
<path d="M66.672 1.048C73.2 1.048 78.448 3.064 82.416 7.096C86.448 11.064 88.464 16.632 88.464 23.8V55H75.024V25.624C75.024 21.464 73.968 18.296 71.856 16.12C69.744 13.88 66.864 12.76 63.216 12.76C59.568 12.76 56.656 13.88 54.48 16.12C52.368 18.296 51.312 21.464 51.312 25.624V55H37.872V25.624C37.872 21.464 36.816 18.296 34.704 16.12C32.592 13.88 29.712 12.76 26.064 12.76C22.352 12.76 19.408 13.88 17.232 16.12C15.12 18.296 14.064 21.464 14.064 25.624V55H0.624001V1.816H14.064V8.248C15.792 6.008 18 4.248 20.688 2.96799C23.44 1.688 26.448 1.048 29.712 1.048C33.872 1.048 37.584 1.944 40.848 3.736C44.112 5.464 46.64 7.96 48.432 11.224C50.16 8.152 52.656 5.688 55.92 3.832C59.248 1.976 62.832 1.048 66.672 1.048ZM97.7617 28.216C97.7617 22.84 98.8177 18.072 100.93 13.912C103.106 9.752 106.018 6.552 109.666 4.312C113.378 2.072 117.506 0.951998 122.05 0.951998C126.018 0.951998 129.474 1.752 132.418 3.352C135.426 4.952 137.826 6.968 139.618 9.4V1.816H153.154V55H139.618V47.224C137.89 49.72 135.49 51.8 132.418 53.464C129.41 55.064 125.922 55.864 121.954 55.864C117.474 55.864 113.378 54.712 109.666 52.408C106.018 50.104 103.106 46.872 100.93 42.712C98.8177 38.488 97.7617 33.656 97.7617 28.216ZM139.618 28.408C139.618 25.144 138.978 22.36 137.698 20.056C136.418 17.688 134.69 15.896 132.514 14.68C130.338 13.4 128.002 12.76 125.506 12.76C123.01 12.76 120.706 13.368 118.594 14.584C116.482 15.8 114.754 17.592 113.41 19.96C112.13 22.264 111.49 25.016 111.49 28.216C111.49 31.416 112.13 34.232 113.41 36.664C114.754 39.032 116.482 40.856 118.594 42.136C120.77 43.416 123.074 44.056 125.506 44.056C128.002 44.056 130.338 43.448 132.514 42.232C134.69 40.952 136.418 39.16 137.698 36.856C138.978 34.488 139.618 31.672 139.618 28.408ZM179.72 10.072C181.448 7.256 183.688 5.048 186.44 3.448C189.256 1.848 192.456 1.048 196.04 1.048V15.16H192.488C188.264 15.16 185.064 16.152 182.888 18.136C180.776 20.12 179.72 23.576 179.72 28.504V55H166.28V1.816H179.72V10.072ZM255.301 1.816V55H241.765V48.28C240.037 50.584 237.765 52.408 234.949 53.752C232.197 55.032 229.189 55.672 225.925 55.672C221.765 55.672 218.085 54.808 214.885 53.08C211.685 51.288 209.157 48.696 207.301 45.304C205.509 41.848 204.613 37.752 204.613 33.016V1.816H218.053V31.096C218.053 35.32 219.109 38.584 221.221 40.888C223.333 43.128 226.213 44.248 229.861 44.248C233.573 44.248 236.485 43.128 238.597 40.888C240.709 38.584 241.765 35.32 241.765 31.096V1.816H255.301Z" fill="#6565FF"/>
<path d="M266.546 28.792C266.546 23.352 267.634 18.616 269.81 14.584C271.986 10.488 274.994 7.352 278.834 5.17599C282.674 2.936 287.058 1.816 291.986 1.816C298.45 1.816 303.762 3.416 307.922 6.616C312.146 9.816 314.866 14.168 316.082 19.672H308.882C307.986 15.896 306.034 12.952 303.026 10.84C300.082 8.664 296.402 7.576 291.986 7.576C288.466 7.576 285.298 8.376 282.482 9.976C279.666 11.576 277.426 13.976 275.762 17.176C274.162 20.312 273.362 24.184 273.362 28.792C273.362 33.4 274.162 37.304 275.762 40.504C277.426 43.704 279.666 46.104 282.482 47.704C285.298 49.304 288.466 50.104 291.986 50.104C296.402 50.104 300.082 49.048 303.026 46.936C306.034 44.76 307.986 41.752 308.882 37.912H316.082C314.866 43.288 312.146 47.608 307.922 50.872C303.698 54.136 298.386 55.768 291.986 55.768C287.058 55.768 282.674 54.68 278.834 52.504C274.994 50.264 271.986 47.128 269.81 43.096C267.634 39 266.546 34.232 266.546 28.792ZM351.437 55.768C346.509 55.768 342.061 54.68 338.093 52.504C334.189 50.264 331.085 47.128 328.781 43.096C326.541 39 325.421 34.232 325.421 28.792C325.421 23.352 326.573 18.616 328.877 14.584C331.181 10.488 334.317 7.352 338.285 5.17599C342.253 2.936 346.701 1.816 351.629 1.816C356.557 1.816 361.005 2.936 364.973 5.17599C369.005 7.352 372.141 10.488 374.381 14.584C376.685 18.616 377.837 23.352 377.837 28.792C377.837 34.168 376.685 38.904 374.381 43C372.077 47.096 368.909 50.264 364.877 52.504C360.845 54.68 356.365 55.768 351.437 55.768ZM351.437 49.912C354.893 49.912 358.093 49.144 361.037 47.608C363.981 46.008 366.349 43.64 368.141 40.504C369.997 37.304 370.925 33.4 370.925 28.792C370.925 24.184 370.029 20.312 368.237 17.176C366.445 13.976 364.077 11.608 361.133 10.072C358.189 8.472 354.989 7.672 351.533 7.672C348.077 7.672 344.877 8.472 341.933 10.072C338.989 11.608 336.621 13.976 334.829 17.176C333.101 20.312 332.237 24.184 332.237 28.792C332.237 33.4 333.101 37.304 334.829 40.504C336.621 43.64 338.957 46.008 341.837 47.608C344.781 49.144 347.981 49.912 351.437 49.912ZM396.806 11.896C398.278 8.632 400.518 6.104 403.526 4.312C406.598 2.52 410.342 1.62399 414.758 1.62399V8.632H412.934C408.07 8.632 404.166 9.944 401.222 12.568C398.278 15.192 396.806 19.576 396.806 25.72V55H390.086V2.584H396.806V11.896ZM431.492 14.104C433.156 10.584 435.78 7.672 439.364 5.368C443.012 3 447.332 1.816 452.324 1.816C457.06 1.816 461.316 2.936 465.092 5.17599C468.932 7.352 471.908 10.488 474.02 14.584C476.196 18.616 477.284 23.32 477.284 28.696C477.284 34.072 476.196 38.808 474.02 42.904C471.908 47 468.932 50.168 465.092 52.408C461.316 54.648 457.06 55.768 452.324 55.768C447.396 55.768 443.108 54.616 439.46 52.312C435.812 49.944 433.156 47 431.492 43.48V79.768H424.868V2.584H431.492V14.104ZM470.468 28.696C470.468 24.344 469.604 20.6 467.875 17.464C466.212 14.264 463.908 11.832 460.964 10.168C458.02 8.504 454.692 7.672 450.98 7.672C447.396 7.672 444.1 8.536 441.092 10.264C438.148 11.992 435.812 14.456 434.084 17.656C432.356 20.856 431.492 24.568 431.492 28.792C431.492 33.016 432.356 36.728 434.084 39.928C435.812 43.128 438.148 45.592 441.092 47.32C444.1 49.048 447.396 49.912 450.98 49.912C454.692 49.912 458.02 49.08 460.964 47.416C463.908 45.688 466.212 43.224 467.875 40.024C469.604 36.76 470.468 32.984 470.468 28.696Z" fill="white"/>
</svg>
