<svg width="650" height="132" viewBox="0 0 650 132" fill="none" xmlns="http://www.w3.org/2000/svg">
<path d="M438.953 57.84C438.953 52.4 440.041 47.664 442.217 43.632C444.393 39.536 447.401 36.4 451.241 34.224C455.081 31.984 459.465 30.864 464.393 30.864C470.857 30.864 476.169 32.464 480.329 35.664C484.553 38.864 487.273 43.216 488.489 48.72H481.289C480.393 44.944 478.441 42 475.433 39.888C472.489 37.712 468.809 36.624 464.393 36.624C460.873 36.624 457.705 37.424 454.889 39.024C452.073 40.624 449.833 43.024 448.169 46.224C446.569 49.36 445.769 53.232 445.769 57.84C445.769 62.448 446.569 66.352 448.169 69.552C449.833 72.752 452.073 75.152 454.889 76.752C457.705 78.352 460.873 79.152 464.393 79.152C468.809 79.152 472.489 78.096 475.433 75.984C478.441 73.808 480.393 70.8 481.289 66.96H488.489C487.273 72.336 484.553 76.656 480.329 79.92C476.105 83.184 470.793 84.816 464.393 84.816C459.465 84.816 455.081 83.728 451.241 81.552C447.401 79.312 444.393 76.176 442.217 72.144C440.041 68.048 438.953 63.28 438.953 57.84Z" fill="white"/>
<path d="M523.844 84.816C518.916 84.816 514.468 83.728 510.5 81.552C506.596 79.312 503.492 76.176 501.188 72.144C498.948 68.048 497.828 63.28 497.828 57.84C497.828 52.4 498.98 47.664 501.284 43.632C503.588 39.536 506.724 36.4 510.692 34.224C514.66 31.984 519.108 30.864 524.036 30.864C528.964 30.864 533.412 31.984 537.38 34.224C541.412 36.4 544.548 39.536 546.788 43.632C549.092 47.664 550.244 52.4 550.244 57.84C550.244 63.216 549.092 67.952 546.788 72.048C544.484 76.144 541.316 79.312 537.284 81.552C533.252 83.728 528.772 84.816 523.844 84.816ZM523.844 78.96C527.3 78.96 530.5 78.192 533.444 76.656C536.388 75.056 538.756 72.688 540.548 69.552C542.404 66.352 543.332 62.448 543.332 57.84C543.332 53.232 542.436 49.36 540.644 46.224C538.852 43.024 536.484 40.656 533.54 39.12C530.596 37.52 527.396 36.72 523.94 36.72C520.484 36.72 517.284 37.52 514.34 39.12C511.396 40.656 509.028 43.024 507.236 46.224C505.508 49.36 504.644 53.232 504.644 57.84C504.644 62.448 505.508 66.352 507.236 69.552C509.028 72.688 511.364 75.056 514.244 76.656C517.188 78.192 520.388 78.96 523.844 78.96Z" fill="white"/>
<path d="M569.213 40.944C570.685 37.68 572.925 35.152 575.933 33.36C579.005 31.568 582.749 30.672 587.165 30.672V37.68H585.341C580.477 37.68 576.573 38.992 573.629 41.616C570.685 44.24 569.213 48.624 569.213 54.768V84.048H562.493V31.632H569.213V40.944Z" fill="white"/>
<path d="M603.899 43.152C605.563 39.632 608.187 36.72 611.771 34.416C615.419 32.048 619.739 30.864 624.731 30.864C629.467 30.864 633.723 31.984 637.499 34.224C641.339 36.4 644.315 39.536 646.427 43.632C648.603 47.664 649.691 52.368 649.691 57.744C649.691 63.12 648.603 67.856 646.427 71.952C644.315 76.048 641.339 79.216 637.499 81.456C633.723 83.696 629.467 84.816 624.731 84.816C619.803 84.816 615.515 83.664 611.867 81.36C608.219 78.992 605.563 76.048 603.899 72.528V108.816H597.275V31.632H603.899V43.152ZM642.875 57.744C642.875 53.392 642.011 49.648 640.283 46.512C638.619 43.312 636.315 40.88 633.371 39.216C630.427 37.552 627.099 36.72 623.387 36.72C619.803 36.72 616.507 37.584 613.499 39.312C610.555 41.04 608.219 43.504 606.491 46.704C604.763 49.904 603.899 53.616 603.899 57.84C603.899 62.064 604.763 65.776 606.491 68.976C608.219 72.176 610.555 74.64 613.499 76.368C616.507 78.096 619.803 78.96 623.387 78.96C627.099 78.96 630.427 78.128 633.371 76.464C636.315 74.736 638.619 72.272 640.283 69.072C642.011 65.808 642.875 62.032 642.875 57.744Z" fill="white"/>
<path d="M239.048 30.096C245.576 30.096 250.824 32.112 254.792 36.144C258.824 40.112 260.84 45.68 260.84 52.848V84.048H247.4V54.672C247.4 50.512 246.344 47.344 244.232 45.168C242.12 42.928 239.24 41.808 235.592 41.808C231.944 41.808 229.032 42.928 226.856 45.168C224.744 47.344 223.688 50.512 223.688 54.672V84.048H210.248V54.672C210.248 50.512 209.192 47.344 207.08 45.168C204.968 42.928 202.088 41.808 198.44 41.808C194.728 41.808 191.784 42.928 189.608 45.168C187.496 47.344 186.44 50.512 186.44 54.672V84.048H173V30.864H186.44V37.296C188.168 35.056 190.376 33.296 193.064 32.016C195.816 30.736 198.824 30.096 202.088 30.096C206.248 30.096 209.96 30.992 213.224 32.784C216.488 34.512 219.016 37.008 220.808 40.272C222.536 37.2 225.032 34.736 228.296 32.88C231.624 31.024 235.208 30.096 239.048 30.096Z" fill="#6565FF"/>
<path d="M270.138 57.264C270.138 51.888 271.194 47.12 273.306 42.96C275.482 38.8 278.394 35.6 282.042 33.36C285.754 31.12 289.882 30 294.426 30C298.394 30 301.85 30.8 304.794 32.4C307.802 34 310.202 36.016 311.994 38.448V30.864H325.53V84.048H311.994V76.272C310.266 78.768 307.866 80.848 304.794 82.512C301.786 84.112 298.298 84.912 294.33 84.912C289.85 84.912 285.754 83.76 282.042 81.456C278.394 79.152 275.482 75.92 273.306 71.76C271.194 67.536 270.138 62.704 270.138 57.264ZM311.994 57.456C311.994 54.192 311.354 51.408 310.074 49.104C308.794 46.736 307.066 44.944 304.89 43.728C302.714 42.448 300.378 41.808 297.882 41.808C295.386 41.808 293.082 42.416 290.97 43.632C288.858 44.848 287.13 46.64 285.786 49.008C284.506 51.312 283.866 54.064 283.866 57.264C283.866 60.464 284.506 63.28 285.786 65.712C287.13 68.08 288.858 69.904 290.97 71.184C293.146 72.464 295.45 73.104 297.882 73.104C300.378 73.104 302.714 72.496 304.89 71.28C307.066 70 308.794 68.208 310.074 65.904C311.354 63.536 311.994 60.72 311.994 57.456Z" fill="#6565FF"/>
<path d="M352.096 39.12C353.824 36.304 356.064 34.096 358.816 32.496C361.632 30.896 364.832 30.096 368.416 30.096V44.208H364.864C360.64 44.208 357.44 45.2 355.264 47.184C353.152 49.168 352.096 52.624 352.096 57.552V84.048H338.656V30.864H352.096V39.12Z" fill="#6565FF"/>
<path d="M427.677 30.864V84.048H414.141V77.328C412.413 79.632 410.141 81.456 407.325 82.8C404.573 84.08 401.565 84.72 398.301 84.72C394.141 84.72 390.461 83.856 387.261 82.128C384.061 80.336 381.533 77.744 379.677 74.352C377.885 70.896 376.989 66.8 376.989 62.064V30.864H390.429V60.144C390.429 64.368 391.485 67.632 393.597 69.936C395.709 72.176 398.589 73.296 402.237 73.296C405.949 73.296 408.861 72.176 410.973 69.936C413.085 67.632 414.141 64.368 414.141 60.144V30.864H427.677Z" fill="#6565FF"/>
<path d="M0 19V132ZM39 19V95.9217ZM78 19V132Z" fill="black"/>
<path fill-rule="evenodd" clip-rule="evenodd" d="M21 113V0H44.9597V113H21ZM60.0201 76.9217V0H83.9799V76.9217H60.0201ZM99.0403 113V0H123V113H99.0403Z" fill="#6565FF"/>
</svg>
