<svg width="462" height="74" viewBox="0 0 462 74" fill="none" xmlns="http://www.w3.org/2000/svg">
<path d="M0.795455 54V1.63636H14.6364V10.875H15.25C16.3409 7.80682 18.1591 5.38636 20.7045 3.61363C23.25 1.84091 26.2955 0.954546 29.8409 0.954546C33.4318 0.954546 36.4886 1.85227 39.0114 3.64772C41.5341 5.42045 43.2159 7.82954 44.0568 10.875H44.6023C45.6705 7.875 47.6023 5.47727 50.3977 3.68182C53.2159 1.86364 56.5455 0.954546 60.3864 0.954546C65.2727 0.954546 69.2386 2.51136 72.2841 5.625C75.3523 8.71591 76.8864 13.1023 76.8864 18.7841V54H62.3977V21.6477C62.3977 18.7386 61.625 16.5568 60.0795 15.1023C58.5341 13.6477 56.6023 12.9205 54.2841 12.9205C51.6477 12.9205 49.5909 13.7614 48.1136 15.4432C46.6364 17.1023 45.8977 19.2955 45.8977 22.0227V54H31.8182V21.3409C31.8182 18.7727 31.0795 16.7273 29.6023 15.2045C28.1477 13.6818 26.2273 12.9205 23.8409 12.9205C22.2273 12.9205 20.7727 13.3295 19.4773 14.1477C18.2045 14.9432 17.1932 16.0682 16.4432 17.5227C15.6932 18.9545 15.3182 20.6364 15.3182 22.5682V54H0.795455ZM103.29 54.9886C99.9489 54.9886 96.9716 54.4091 94.358 53.25C91.7443 52.0682 89.6761 50.3295 88.1534 48.0341C86.6534 45.7159 85.9034 42.8295 85.9034 39.375C85.9034 36.4659 86.4375 34.0227 87.5057 32.0455C88.5739 30.0682 90.0284 28.4773 91.8693 27.2727C93.7102 26.0682 95.8011 25.1591 98.142 24.5455C100.506 23.9318 102.983 23.5 105.574 23.25C108.619 22.9318 111.074 22.6364 112.938 22.3636C114.801 22.0682 116.153 21.6364 116.994 21.0682C117.835 20.5 118.256 19.6591 118.256 18.5455V18.3409C118.256 16.1818 117.574 14.5114 116.21 13.3295C114.869 12.1477 112.96 11.5568 110.483 11.5568C107.869 11.5568 105.79 12.1364 104.244 13.2955C102.699 14.4318 101.676 15.8636 101.176 17.5909L87.7443 16.5C88.4261 13.3182 89.767 10.5682 91.767 8.25C93.767 5.90909 96.3466 4.11363 99.5057 2.86363C102.688 1.59091 106.369 0.954546 110.551 0.954546C113.46 0.954546 116.244 1.29545 118.903 1.97727C121.585 2.65909 123.96 3.71591 126.028 5.14772C128.119 6.57954 129.767 8.42045 130.972 10.6705C132.176 12.8977 132.778 15.5682 132.778 18.6818V54H119.006V46.7386H118.597C117.756 48.375 116.631 49.8182 115.222 51.0682C113.812 52.2955 112.119 53.2614 110.142 53.9659C108.165 54.6477 105.881 54.9886 103.29 54.9886ZM107.449 44.9659C109.585 44.9659 111.472 44.5455 113.108 43.7045C114.744 42.8409 116.028 41.6818 116.96 40.2273C117.892 38.7727 118.358 37.125 118.358 35.2841V29.7273C117.903 30.0227 117.278 30.2955 116.483 30.5455C115.71 30.7727 114.835 30.9886 113.858 31.1932C112.881 31.375 111.903 31.5455 110.926 31.7045C109.949 31.8409 109.062 31.9659 108.267 32.0795C106.563 32.3295 105.074 32.7273 103.801 33.2727C102.528 33.8182 101.54 34.5568 100.835 35.4886C100.131 36.3977 99.7784 37.5341 99.7784 38.8977C99.7784 40.875 100.494 42.3864 101.926 43.4318C103.381 44.4545 105.222 44.9659 107.449 44.9659ZM144.045 54V1.63636H158.125V10.7727H158.67C159.625 7.52273 161.227 5.06818 163.477 3.40909C165.727 1.72727 168.318 0.886362 171.25 0.886362C171.977 0.886362 172.761 0.931816 173.602 1.02272C174.443 1.11364 175.182 1.23864 175.818 1.39772V14.2841C175.136 14.0795 174.193 13.8977 172.989 13.7386C171.784 13.5795 170.682 13.5 169.682 13.5C167.545 13.5 165.636 13.9659 163.955 14.8977C162.295 15.8068 160.977 17.0795 160 18.7159C159.045 20.3523 158.568 22.2386 158.568 24.375V54H144.045ZM216.906 31.7045V1.63636H231.429V54H217.486V44.4886H216.94C215.759 47.5568 213.793 50.0227 211.043 51.8864C208.315 53.75 204.986 54.6818 201.054 54.6818C197.554 54.6818 194.474 53.8864 191.815 52.2955C189.156 50.7045 187.077 48.4432 185.577 45.5114C184.099 42.5795 183.349 39.0682 183.327 34.9773V1.63636H197.849V32.3864C197.872 35.4773 198.702 37.9205 200.338 39.7159C201.974 41.5114 204.168 42.4091 206.918 42.4091C208.668 42.4091 210.304 42.0114 211.827 41.2159C213.349 40.3977 214.577 39.1932 215.509 37.6023C216.463 36.0114 216.929 34.0455 216.906 31.7045ZM265.886 55.0909C260.977 55.0909 256.75 53.9318 253.205 51.6136C249.659 49.2955 246.932 46.1023 245.023 42.0341C243.114 37.9659 242.159 33.3182 242.159 28.0909C242.159 22.7727 243.136 18.0795 245.091 14.0114C247.068 9.92045 249.818 6.72727 253.341 4.43182C256.886 2.11364 261.023 0.954546 265.75 0.954546C269.432 0.954546 272.75 1.63636 275.705 3C278.659 4.36364 281.08 6.27273 282.966 8.72727C284.852 11.1818 286.023 14.0455 286.477 17.3182H278.432C277.818 14.9318 276.455 12.8182 274.341 10.9773C272.25 9.11363 269.432 8.18182 265.886 8.18182C262.75 8.18182 260 9 257.636 10.6364C255.295 12.25 253.466 14.5341 252.148 17.4886C250.852 20.4205 250.205 23.8636 250.205 27.8182C250.205 31.8636 250.841 35.3864 252.114 38.3864C253.409 41.3864 255.227 43.7159 257.568 45.375C259.932 47.0341 262.705 47.8636 265.886 47.8636C267.977 47.8636 269.875 47.5 271.58 46.7727C273.284 46.0455 274.727 45 275.909 43.6364C277.091 42.2727 277.932 40.6364 278.432 38.7273H286.477C286.023 41.8182 284.898 44.6023 283.102 47.0795C281.33 49.5341 278.977 51.4886 276.045 52.9432C273.136 54.375 269.75 55.0909 265.886 55.0909ZM319.511 55.0909C314.784 55.0909 310.636 53.9659 307.068 51.7159C303.523 49.4659 300.75 46.3182 298.75 42.2727C296.773 38.2273 295.784 33.5 295.784 28.0909C295.784 22.6364 296.773 17.875 298.75 13.8068C300.75 9.73863 303.523 6.57954 307.068 4.32955C310.636 2.07955 314.784 0.954546 319.511 0.954546C324.239 0.954546 328.375 2.07955 331.92 4.32955C335.489 6.57954 338.261 9.73863 340.239 13.8068C342.239 17.875 343.239 22.6364 343.239 28.0909C343.239 33.5 342.239 38.2273 340.239 42.2727C338.261 46.3182 335.489 49.4659 331.92 51.7159C328.375 53.9659 324.239 55.0909 319.511 55.0909ZM319.511 47.8636C323.102 47.8636 326.057 46.9432 328.375 45.1023C330.693 43.2614 332.409 40.8409 333.523 37.8409C334.636 34.8409 335.193 31.5909 335.193 28.0909C335.193 24.5909 334.636 21.3295 333.523 18.3068C332.409 15.2841 330.693 12.8409 328.375 10.9773C326.057 9.11363 323.102 8.18182 319.511 8.18182C315.92 8.18182 312.966 9.11363 310.648 10.9773C308.33 12.8409 306.614 15.2841 305.5 18.3068C304.386 21.3295 303.83 24.5909 303.83 28.0909C303.83 31.5909 304.386 34.8409 305.5 37.8409C306.614 40.8409 308.33 43.2614 310.648 45.1023C312.966 46.9432 315.92 47.8636 319.511 47.8636ZM355.52 54V1.63636H363.293V9.54545H363.838C364.793 6.95455 366.52 4.85227 369.02 3.23863C371.52 1.625 374.338 0.818178 377.474 0.818178C378.065 0.818178 378.804 0.829542 379.69 0.85227C380.577 0.874998 381.247 0.90909 381.702 0.954546V9.13636C381.429 9.06818 380.804 8.96591 379.827 8.82954C378.872 8.67045 377.861 8.59091 376.793 8.59091C374.247 8.59091 371.974 9.125 369.974 10.1932C367.997 11.2386 366.429 12.6932 365.27 14.5568C364.134 16.3977 363.565 18.5 363.565 20.8636V54H355.52ZM391.239 73.6364V1.63636H399.011V9.95454H399.966C400.557 9.04545 401.375 7.88636 402.42 6.47727C403.489 5.04545 405.011 3.77273 406.989 2.65909C408.989 1.52273 411.693 0.954546 415.102 0.954546C419.511 0.954546 423.398 2.05682 426.761 4.26136C430.125 6.46591 432.75 9.59091 434.636 13.6364C436.523 17.6818 437.466 22.4545 437.466 27.9545C437.466 33.5 436.523 38.3068 434.636 42.375C432.75 46.4205 430.136 49.5568 426.795 51.7841C423.455 53.9886 419.602 55.0909 415.239 55.0909C411.875 55.0909 409.182 54.5341 407.159 53.4205C405.136 52.2841 403.58 51 402.489 49.5682C401.398 48.1136 400.557 46.9091 399.966 45.9545H399.284V73.6364H391.239ZM399.148 27.8182C399.148 31.7727 399.727 35.2614 400.886 38.2841C402.045 41.2841 403.739 43.6364 405.966 45.3409C408.193 47.0227 410.92 47.8636 414.148 47.8636C417.511 47.8636 420.318 46.9773 422.568 45.2045C424.841 43.4091 426.545 41 427.682 37.9773C428.841 34.9318 429.42 31.5455 429.42 27.8182C429.42 24.1364 428.852 20.8182 427.716 17.8636C426.602 14.8864 424.909 12.5341 422.636 10.8068C420.386 9.05682 417.557 8.18182 414.148 8.18182C410.875 8.18182 408.125 9.01136 405.898 10.6705C403.67 12.3068 401.989 14.6023 400.852 17.5568C399.716 20.4886 399.148 23.9091 399.148 27.8182ZM455.602 54.5455C453.92 54.5455 452.477 53.9432 451.273 52.7386C450.068 51.5341 449.466 50.0909 449.466 48.4091C449.466 46.7273 450.068 45.2841 451.273 44.0795C452.477 42.875 453.92 42.2727 455.602 42.2727C457.284 42.2727 458.727 42.875 459.932 44.0795C461.136 45.2841 461.739 46.7273 461.739 48.4091C461.739 49.5227 461.455 50.5455 460.886 51.4773C460.341 52.4091 459.602 53.1591 458.67 53.7273C457.761 54.2727 456.739 54.5455 455.602 54.5455Z" fill="white"/>
</svg>
